<mxfile host="65bd71144e">
    <diagram id="PN5TOe0FE_SLMsJgRFYq" name="Página-1">
        <mxGraphModel dx="1216" dy="809" grid="1" gridSize="10" guides="1" tooltips="1" connect="1" arrows="1" fold="1" page="1" pageScale="1" pageWidth="850" pageHeight="1100" math="0" shadow="0">
            <root>
                <mxCell id="0"/>
                <mxCell id="1" parent="0"/>
                <mxCell id="3Dhr9JopblxVwUFOS69L-12" style="edgeStyle=none;html=1;entryX=0;entryY=0.5;entryDx=0;entryDy=0;endArrow=none;endFill=0;" parent="1" source="3Dhr9JopblxVwUFOS69L-2" target="3Dhr9JopblxVwUFOS69L-8" edge="1">
                    <mxGeometry relative="1" as="geometry"/>
                </mxCell>
                <mxCell id="3Dhr9JopblxVwUFOS69L-2" value="USUARIO" style="rounded=0;whiteSpace=wrap;html=1;" parent="1" vertex="1">
                    <mxGeometry x="130" y="110" width="110" height="50" as="geometry"/>
                </mxCell>
                <mxCell id="3Dhr9JopblxVwUFOS69L-9" style="edgeStyle=none;html=1;entryX=0.5;entryY=0;entryDx=0;entryDy=0;endArrow=none;endFill=0;" parent="1" source="2" target="3Dhr9JopblxVwUFOS69L-6" edge="1">
                    <mxGeometry relative="1" as="geometry"/>
                </mxCell>
                <mxCell id="8Fx1ibcSQZerySoRfxwA-24" value="0,N" style="edgeLabel;html=1;align=center;verticalAlign=middle;resizable=0;points=[];" parent="3Dhr9JopblxVwUFOS69L-9" connectable="0" vertex="1">
                    <mxGeometry x="-0.6444" y="1" relative="1" as="geometry">
                        <mxPoint as="offset"/>
                    </mxGeometry>
                </mxCell>
                <mxCell id="2" value="LISTACOMPRA" style="rounded=0;whiteSpace=wrap;html=1;" parent="1" vertex="1">
                    <mxGeometry x="520" y="110" width="110" height="50" as="geometry"/>
                </mxCell>
                <mxCell id="3" value="PRODUCTO" style="rounded=0;whiteSpace=wrap;html=1;" parent="1" vertex="1">
                    <mxGeometry x="520" y="380" width="110" height="50" as="geometry"/>
                </mxCell>
                <mxCell id="5" value="" style="endArrow=none;html=1;entryX=0.5;entryY=1;entryDx=0;entryDy=0;" parent="1" source="3Dhr9JopblxVwUFOS69L-2" target="6" edge="1">
                    <mxGeometry width="50" height="50" relative="1" as="geometry">
                        <mxPoint x="400" y="290" as="sourcePoint"/>
                        <mxPoint x="213" y="80" as="targetPoint"/>
                    </mxGeometry>
                </mxCell>
                <mxCell id="6" value="&lt;b&gt;&lt;u&gt;id&lt;/u&gt;&lt;/b&gt;" style="ellipse;whiteSpace=wrap;html=1;" parent="1" vertex="1">
                    <mxGeometry x="70" y="30" width="110" height="45" as="geometry"/>
                </mxCell>
                <mxCell id="3Dhr9JopblxVwUFOS69L-10" style="edgeStyle=none;html=1;entryX=0.5;entryY=0;entryDx=0;entryDy=0;endArrow=none;endFill=0;" parent="1" source="3Dhr9JopblxVwUFOS69L-6" target="3" edge="1">
                    <mxGeometry relative="1" as="geometry"/>
                </mxCell>
                <mxCell id="8Fx1ibcSQZerySoRfxwA-25" value="1,N" style="edgeLabel;html=1;align=center;verticalAlign=middle;resizable=0;points=[];" parent="3Dhr9JopblxVwUFOS69L-10" connectable="0" vertex="1">
                    <mxGeometry x="0.6388" y="-1" relative="1" as="geometry">
                        <mxPoint as="offset"/>
                    </mxGeometry>
                </mxCell>
                <mxCell id="3Dhr9JopblxVwUFOS69L-6" value="CONTIENE" style="rhombus;whiteSpace=wrap;html=1;" parent="1" vertex="1">
                    <mxGeometry x="535" y="220" width="80" height="80" as="geometry"/>
                </mxCell>
                <mxCell id="8Fx1ibcSQZerySoRfxwA-7" value="" style="endArrow=none;html=1;entryX=0.5;entryY=1;entryDx=0;entryDy=0;exitX=0.25;exitY=1;exitDx=0;exitDy=0;" parent="1" target="8Fx1ibcSQZerySoRfxwA-8" edge="1" source="3Dhr9JopblxVwUFOS69L-2">
                    <mxGeometry width="50" height="50" relative="1" as="geometry">
                        <mxPoint x="185" y="110" as="sourcePoint"/>
                        <mxPoint x="303" y="290" as="targetPoint"/>
                    </mxGeometry>
                </mxCell>
                <mxCell id="8Fx1ibcSQZerySoRfxwA-8" value="mail" style="ellipse;whiteSpace=wrap;html=1;" parent="1" vertex="1">
                    <mxGeometry x="70" y="190" width="110" height="45" as="geometry"/>
                </mxCell>
                <mxCell id="8Fx1ibcSQZerySoRfxwA-9" value="" style="endArrow=none;html=1;" parent="1" source="3Dhr9JopblxVwUFOS69L-2" target="8" edge="1">
                    <mxGeometry width="50" height="50" relative="1" as="geometry">
                        <mxPoint x="200" y="245" as="sourcePoint"/>
                        <mxPoint x="115.76541780802518" y="174.13258993459442" as="targetPoint"/>
                    </mxGeometry>
                </mxCell>
                <mxCell id="8" value="password" style="ellipse;whiteSpace=wrap;html=1;" parent="1" vertex="1">
                    <mxGeometry x="210" y="190" width="110" height="45" as="geometry"/>
                </mxCell>
                <mxCell id="3Dhr9JopblxVwUFOS69L-11" style="edgeStyle=none;html=1;entryX=0;entryY=0.5;entryDx=0;entryDy=0;endArrow=none;endFill=0;" parent="1" source="3Dhr9JopblxVwUFOS69L-8" target="2" edge="1">
                    <mxGeometry relative="1" as="geometry"/>
                </mxCell>
                <mxCell id="3Dhr9JopblxVwUFOS69L-8" value="TIENE" style="rhombus;whiteSpace=wrap;html=1;" parent="1" vertex="1">
                    <mxGeometry x="340" y="95" width="80" height="80" as="geometry"/>
                </mxCell>
                <mxCell id="10" value="&lt;u&gt;&lt;b&gt;id&lt;/b&gt;&lt;/u&gt;" style="ellipse;whiteSpace=wrap;html=1;" parent="1" vertex="1">
                    <mxGeometry x="440" y="45" width="110" height="45" as="geometry"/>
                </mxCell>
                <mxCell id="11" value="nombre" style="ellipse;whiteSpace=wrap;html=1;" parent="1" vertex="1">
                    <mxGeometry x="560" y="43.75" width="110" height="42.5" as="geometry"/>
                </mxCell>
                <mxCell id="12" value="descripción" style="ellipse;whiteSpace=wrap;html=1;" parent="1" vertex="1">
                    <mxGeometry x="680" y="50" width="100" height="45" as="geometry"/>
                </mxCell>
                <mxCell id="13" value="id_usuario*" style="ellipse;whiteSpace=wrap;html=1;" parent="1" vertex="1">
                    <mxGeometry x="680" y="110" width="100" height="40" as="geometry"/>
                </mxCell>
                <mxCell id="3Dhr9JopblxVwUFOS69L-13" value="&lt;u&gt;&lt;b&gt;id&lt;/b&gt;&lt;/u&gt;" style="ellipse;whiteSpace=wrap;html=1;" parent="1" vertex="1">
                    <mxGeometry x="660" y="380" width="110" height="45" as="geometry"/>
                </mxCell>
                <mxCell id="8Fx1ibcSQZerySoRfxwA-13" value="nombre" style="ellipse;whiteSpace=wrap;html=1;" parent="1" vertex="1">
                    <mxGeometry x="390" y="382.5" width="110" height="45" as="geometry"/>
                </mxCell>
                <mxCell id="14" value="fecha" style="ellipse;whiteSpace=wrap;html=1;" parent="1" vertex="1">
                    <mxGeometry x="680" y="160" width="100" height="45" as="geometry"/>
                </mxCell>
                <mxCell id="15" value="" style="endArrow=none;html=1;exitX=0;exitY=0;exitDx=0;exitDy=0;entryX=0.5;entryY=1;entryDx=0;entryDy=0;" parent="1" source="2" target="10" edge="1">
                    <mxGeometry width="50" height="50" relative="1" as="geometry">
                        <mxPoint x="240" y="120" as="sourcePoint"/>
                        <mxPoint x="284" y="95" as="targetPoint"/>
                    </mxGeometry>
                </mxCell>
                <mxCell id="8Fx1ibcSQZerySoRfxwA-15" value="" style="endArrow=none;html=1;" parent="1" source="8Fx1ibcSQZerySoRfxwA-13" target="3" edge="1">
                    <mxGeometry width="50" height="50" relative="1" as="geometry">
                        <mxPoint x="140" y="350" as="sourcePoint"/>
                        <mxPoint x="70" y="330" as="targetPoint"/>
                        <Array as="points"/>
                    </mxGeometry>
                </mxCell>
                <mxCell id="16" value="" style="endArrow=none;html=1;exitX=0.75;exitY=0;exitDx=0;exitDy=0;" parent="1" source="2" target="11" edge="1">
                    <mxGeometry width="50" height="50" relative="1" as="geometry">
                        <mxPoint x="558" y="120" as="sourcePoint"/>
                        <mxPoint x="529" y="94" as="targetPoint"/>
                    </mxGeometry>
                </mxCell>
                <mxCell id="17" value="" style="endArrow=none;html=1;exitX=1;exitY=0.25;exitDx=0;exitDy=0;" parent="1" source="2" target="12" edge="1">
                    <mxGeometry width="50" height="50" relative="1" as="geometry">
                        <mxPoint x="613" y="120" as="sourcePoint"/>
                        <mxPoint x="650" y="90" as="targetPoint"/>
                    </mxGeometry>
                </mxCell>
                <mxCell id="18" value="" style="endArrow=none;html=1;exitX=1;exitY=0.5;exitDx=0;exitDy=0;" parent="1" source="2" target="13" edge="1">
                    <mxGeometry width="50" height="50" relative="1" as="geometry">
                        <mxPoint x="640" y="133" as="sourcePoint"/>
                        <mxPoint x="690" y="115" as="targetPoint"/>
                    </mxGeometry>
                </mxCell>
                <mxCell id="8Fx1ibcSQZerySoRfxwA-18" value="categoría" style="ellipse;whiteSpace=wrap;html=1;" parent="1" vertex="1">
                    <mxGeometry x="450" y="440" width="110" height="45" as="geometry"/>
                </mxCell>
                <mxCell id="8Fx1ibcSQZerySoRfxwA-19" value="" style="endArrow=none;html=1;" parent="1" source="8Fx1ibcSQZerySoRfxwA-18" target="3" edge="1">
                    <mxGeometry width="50" height="50" relative="1" as="geometry">
                        <mxPoint x="140" y="470" as="sourcePoint"/>
                        <mxPoint x="520" y="635" as="targetPoint"/>
                        <Array as="points"/>
                    </mxGeometry>
                </mxCell>
                <mxCell id="3Dhr9JopblxVwUFOS69L-20" value="unidad" style="ellipse;whiteSpace=wrap;html=1;" parent="1" vertex="1">
                    <mxGeometry x="590" y="440" width="110" height="45" as="geometry"/>
                </mxCell>
                <mxCell id="8Fx1ibcSQZerySoRfxwA-20" value="" style="endArrow=none;html=1;entryX=0.5;entryY=1;entryDx=0;entryDy=0;" parent="1" source="3Dhr9JopblxVwUFOS69L-20" target="3" edge="1">
                    <mxGeometry width="50" height="50" relative="1" as="geometry">
                        <mxPoint x="520" y="672" as="sourcePoint"/>
                        <mxPoint x="595" y="625" as="targetPoint"/>
                        <Array as="points"/>
                    </mxGeometry>
                </mxCell>
                <mxCell id="8Fx1ibcSQZerySoRfxwA-22" value="" style="endArrow=none;html=1;" parent="1" source="3Dhr9JopblxVwUFOS69L-13" target="3" edge="1">
                    <mxGeometry width="50" height="50" relative="1" as="geometry">
                        <mxPoint x="585" y="683.5" as="sourcePoint"/>
                        <mxPoint x="530" y="632.5" as="targetPoint"/>
                        <Array as="points"/>
                    </mxGeometry>
                </mxCell>
                <mxCell id="8Fx1ibcSQZerySoRfxwA-23" style="edgeStyle=none;html=1;endArrow=none;endFill=0;" parent="1" source="2" target="14" edge="1">
                    <mxGeometry relative="1" as="geometry">
                        <mxPoint x="385" y="225" as="sourcePoint"/>
                        <mxPoint x="485" y="225" as="targetPoint"/>
                    </mxGeometry>
                </mxCell>
                <mxCell id="8Fx1ibcSQZerySoRfxwA-26" value="N:M" style="text;html=1;align=center;verticalAlign=middle;whiteSpace=wrap;rounded=0;" parent="1" vertex="1">
                    <mxGeometry x="465" y="245" width="60" height="30" as="geometry"/>
                </mxCell>
                <mxCell id="8Fx1ibcSQZerySoRfxwA-28" value="" style="endArrow=none;html=1;" parent="1" source="3Dhr9JopblxVwUFOS69L-6" target="8Fx1ibcSQZerySoRfxwA-29" edge="1">
                    <mxGeometry width="50" height="50" relative="1" as="geometry">
                        <mxPoint x="440" y="310" as="sourcePoint"/>
                        <mxPoint x="510" y="260" as="targetPoint"/>
                    </mxGeometry>
                </mxCell>
                <mxCell id="8Fx1ibcSQZerySoRfxwA-29" value="&lt;u&gt;&lt;b&gt;idListaCompra*&lt;/b&gt;&lt;/u&gt;" style="ellipse;whiteSpace=wrap;html=1;" parent="1" vertex="1">
                    <mxGeometry x="410" y="190" width="110" height="45" as="geometry"/>
                </mxCell>
                <mxCell id="8Fx1ibcSQZerySoRfxwA-30" value="&lt;u&gt;&lt;b&gt;idProducto*&lt;/b&gt;&lt;/u&gt;" style="ellipse;whiteSpace=wrap;html=1;" parent="1" vertex="1">
                    <mxGeometry x="410" y="300" width="110" height="45" as="geometry"/>
                </mxCell>
                <mxCell id="8Fx1ibcSQZerySoRfxwA-31" value="" style="endArrow=none;html=1;" parent="1" source="3Dhr9JopblxVwUFOS69L-6" target="8Fx1ibcSQZerySoRfxwA-30" edge="1">
                    <mxGeometry width="50" height="50" relative="1" as="geometry">
                        <mxPoint x="530" y="320" as="sourcePoint"/>
                        <mxPoint x="509" y="274" as="targetPoint"/>
                    </mxGeometry>
                </mxCell>
                <mxCell id="8Fx1ibcSQZerySoRfxwA-32" value="cantidad" style="ellipse;whiteSpace=wrap;html=1;" parent="1" vertex="1">
                    <mxGeometry x="650" y="270" width="110" height="45" as="geometry"/>
                </mxCell>
                <mxCell id="8Fx1ibcSQZerySoRfxwA-33" value="" style="endArrow=none;html=1;" parent="1" source="8Fx1ibcSQZerySoRfxwA-32" target="3Dhr9JopblxVwUFOS69L-6" edge="1">
                    <mxGeometry width="50" height="50" relative="1" as="geometry">
                        <mxPoint x="718" y="330" as="sourcePoint"/>
                        <mxPoint x="680" y="332" as="targetPoint"/>
                    </mxGeometry>
                </mxCell>
                <mxCell id="8Fx1ibcSQZerySoRfxwA-35" value="comprado" style="ellipse;whiteSpace=wrap;html=1;" parent="1" vertex="1">
                    <mxGeometry x="650" y="220" width="110" height="45" as="geometry"/>
                </mxCell>
                <mxCell id="8Fx1ibcSQZerySoRfxwA-36" value="" style="endArrow=none;html=1;" parent="1" source="8Fx1ibcSQZerySoRfxwA-35" target="3Dhr9JopblxVwUFOS69L-6" edge="1">
                    <mxGeometry width="50" height="50" relative="1" as="geometry">
                        <mxPoint x="651" y="305" as="sourcePoint"/>
                        <mxPoint x="611" y="284" as="targetPoint"/>
                    </mxGeometry>
                </mxCell>
                <mxCell id="19" value="nombre" style="ellipse;whiteSpace=wrap;html=1;" vertex="1" parent="1">
                    <mxGeometry x="190" y="30" width="110" height="45" as="geometry"/>
                </mxCell>
                <mxCell id="20" value="" style="endArrow=none;html=1;entryX=0.5;entryY=1;entryDx=0;entryDy=0;" edge="1" parent="1" source="3Dhr9JopblxVwUFOS69L-2" target="19">
                    <mxGeometry width="50" height="50" relative="1" as="geometry">
                        <mxPoint x="185" y="123" as="sourcePoint"/>
                        <mxPoint x="135" y="85" as="targetPoint"/>
                    </mxGeometry>
                </mxCell>
                <mxCell id="21" value="RECETASGUARDADAS" style="rounded=0;whiteSpace=wrap;html=1;" vertex="1" parent="1">
                    <mxGeometry x="80" y="360" width="150" height="50" as="geometry"/>
                </mxCell>
                <mxCell id="22" value="&lt;u&gt;id&lt;/u&gt;" style="ellipse;whiteSpace=wrap;html=1;" vertex="1" parent="1">
                    <mxGeometry x="20" y="300" width="110" height="45" as="geometry"/>
                </mxCell>
                <mxCell id="23" value="id_usuario*" style="ellipse;whiteSpace=wrap;html=1;" vertex="1" parent="1">
                    <mxGeometry x="150" y="300" width="110" height="45" as="geometry"/>
                </mxCell>
                <mxCell id="24" value="id_receta" style="ellipse;whiteSpace=wrap;html=1;" vertex="1" parent="1">
                    <mxGeometry x="100" y="430" width="110" height="45" as="geometry"/>
                </mxCell>
                <mxCell id="25" value="" style="endArrow=none;html=1;entryX=0.5;entryY=1;entryDx=0;entryDy=0;" edge="1" parent="1" source="21" target="22">
                    <mxGeometry width="50" height="50" relative="1" as="geometry">
                        <mxPoint x="168" y="170" as="sourcePoint"/>
                        <mxPoint x="135" y="245" as="targetPoint"/>
                    </mxGeometry>
                </mxCell>
                <mxCell id="26" value="" style="endArrow=none;html=1;exitX=0.5;exitY=1;exitDx=0;exitDy=0;" edge="1" parent="1" source="23" target="21">
                    <mxGeometry width="50" height="50" relative="1" as="geometry">
                        <mxPoint x="115" y="370" as="sourcePoint"/>
                        <mxPoint x="85" y="355" as="targetPoint"/>
                    </mxGeometry>
                </mxCell>
                <mxCell id="27" value="" style="endArrow=none;html=1;exitX=0.5;exitY=0;exitDx=0;exitDy=0;" edge="1" parent="1" source="24" target="21">
                    <mxGeometry width="50" height="50" relative="1" as="geometry">
                        <mxPoint x="215" y="355" as="sourcePoint"/>
                        <mxPoint x="196" y="370" as="targetPoint"/>
                    </mxGeometry>
                </mxCell>
            </root>
        </mxGraphModel>
    </diagram>
</mxfile>